<svg width="48" height="48" viewBox="0 0 48 48" fill="none" xmlns="http://www.w3.org/2000/svg">
<path d="M24.1673 0.99054C25.2616 1.62127 26.3112 2.25989 27.3712 2.88079C28.7717 3.70107 30.18 4.50787 31.5853 5.31969C32.9488 6.10732 34.313 6.89375 35.6766 7.68113C37.3075 8.62283 38.9365 9.56764 40.5694 10.5059C41.5543 11.0719 42.5387 11.6396 43.5367 12.1819C43.8652 12.3604 44.0073 12.566 43.9997 12.9546C43.9745 14.2354 43.9902 15.5171 43.9902 16.8123C39.6211 19.3353 35.2554 21.8564 30.8016 24.4283C30.8016 23.4122 30.7769 22.4738 30.8112 21.5375C30.8305 21.0112 30.7466 20.6775 30.2026 20.393C28.7514 19.6343 27.3541 18.7721 25.9375 17.9474C24.325 17.0086 22.7179 16.0603 21.1024 15.1266C19.7245 14.3302 18.3344 13.5551 16.9565 12.7588C15.3402 11.8246 13.7327 10.8752 12.1183 9.93749C11.5283 9.59477 10.9297 9.2668 10.2458 8.8819C10.8485 8.52759 11.4077 8.19618 11.9694 7.86901C14.0601 6.65129 16.1486 5.42989 18.2437 4.21976C19.8607 3.28574 21.4863 2.36646 23.1082 1.4408C23.333 1.31247 23.5585 1.18519 23.7956 1.02398C23.9142 0.99054 24.0208 0.99054 24.1673 0.99054ZM30.4986 14.6275C29.5323 14.0739 28.566 13.5202 27.5556 12.9413C28.4342 12.4323 29.2833 12.0112 30.0518 11.4747C30.7773 10.9684 31.3547 10.9933 32.115 11.4614C34.3541 12.8401 36.649 14.1281 38.9268 15.4436C39.013 15.4934 39.1716 15.5034 39.2557 15.4575C39.7315 15.1974 40.1948 14.9146 40.6754 14.6319C35.0939 11.4092 29.5405 8.2028 23.9998 5.00364C21.7778 6.28539 19.5621 7.56354 17.305 8.86553C17.7478 9.12439 18.1641 9.37195 18.5843 9.61281C20.8384 10.9048 23.0982 12.1871 25.347 13.4882C28.1579 15.1145 30.9596 16.7567 33.7686 18.3863C33.8535 18.4355 34.0005 18.4686 34.0758 18.4286C34.5664 18.1682 35.0451 17.8855 35.5874 17.5761C33.8448 16.5735 32.1987 15.6264 30.4986 14.6275Z" fill="#0099DC"/>
<path d="M32.6643 38.0317C33.6333 37.4599 34.5672 36.9021 35.5096 36.359C37.0855 35.4508 38.6706 34.5584 40.2389 33.6373C40.3732 33.5585 40.4696 33.3189 40.4819 33.1467C40.5151 32.6831 40.4933 32.2155 40.4933 31.6495C35.4514 34.5592 30.4595 37.4402 25.4066 40.3563C25.4066 39.0237 25.4023 37.7514 25.4146 36.4793C25.4156 36.3742 25.5033 36.2256 25.5946 36.1725C26.7595 35.4942 27.9344 34.8332 29.1028 34.1609C30.5657 33.3192 32.0229 32.4674 33.4865 31.6268C34.9232 30.8015 36.3672 29.989 37.8035 29.1633C39.4226 28.2325 41.036 27.292 42.6534 26.3585C43.0704 26.1178 43.4935 25.8876 43.9663 25.6233C43.9766 25.8397 43.9893 25.9828 43.9894 26.1259C43.9905 29.1228 43.9835 32.1197 43.9999 35.1165C44.0018 35.446 43.8963 35.6281 43.6251 35.7813C42.4094 36.4677 41.1982 37.1621 39.9895 37.8606C38.5972 38.6653 37.2106 39.4797 35.8189 40.2855C34.6245 40.977 33.4254 41.6605 32.2302 42.3507C30.8245 43.1625 29.421 43.978 28.0161 44.7913C26.7508 45.5237 25.4868 46.2585 24.2151 46.9797C24.1277 47.0293 23.9584 47.013 23.8646 46.9605C22.6879 46.3029 21.5137 45.6403 20.3541 44.9532C20.2516 44.8924 20.2167 44.6514 20.2164 44.494C20.2094 39.982 20.2107 35.47 20.2108 30.958C20.2108 30.4758 20.2108 29.9936 20.2108 29.4286C20.9554 29.8546 21.6497 30.2505 22.3426 30.649C22.6379 30.8188 22.9372 30.9835 23.2218 31.1701C23.5296 31.3718 23.7661 31.3468 24.1015 31.1445C25.5196 30.2894 26.9719 29.4913 28.407 28.6644C29.7999 27.8618 31.1854 27.0461 32.5776 26.2422C33.9557 25.4464 35.3403 24.6616 36.7183 23.8655C38.335 22.9315 39.947 21.9894 41.5622 21.0529C42.2509 20.6535 42.9414 20.2572 43.6344 19.8654C43.7262 19.8135 43.8379 19.7968 43.99 19.7478C43.99 21.0494 43.9972 22.2957 43.9784 23.5416C43.9766 23.6621 43.839 23.8239 43.7213 23.893C41.3954 25.2563 39.0665 26.6146 36.7313 27.9618C34.2413 29.3982 31.7437 30.8213 29.2503 32.2516C27.5038 33.2534 25.7551 34.2516 24.0192 35.2715C23.8699 35.3592 23.7233 35.5969 23.7211 35.7668C23.6991 37.4647 23.7078 39.1631 23.7078 40.8613C23.7078 41.5951 23.7078 42.3288 23.7078 43.1539C24.3039 42.8197 24.8594 42.5143 25.4092 42.199C26.8883 41.351 28.3644 40.4979 29.8427 39.6486C30.7719 39.1148 31.7029 38.5843 32.6643 38.0317Z" fill="#0099DC"/>
<path d="M14.3036 37.2753C14.3139 30.9909 14.3189 24.748 14.3064 18.5052C14.3056 18.1015 14.4298 17.9097 14.7924 17.7235C15.6576 17.2795 16.4908 16.7716 17.3251 16.2697C17.6208 16.0918 17.8418 16.0674 18.1583 16.274C18.8903 16.7518 19.6631 17.1671 20.5077 17.6591C20.1346 17.893 19.8334 18.0939 19.5206 18.2748C19.029 18.5594 18.5207 18.8161 18.04 19.1176C17.9231 19.1909 17.8273 19.3905 17.8231 19.535C17.8014 20.2669 17.813 20.9997 17.8131 21.7322C17.8132 28.7908 17.8134 35.8495 17.8136 42.9081C17.8136 43.0827 17.8136 43.2574 17.8136 43.5051C14.8748 41.81 12.01 40.1575 9.1203 38.4907C9.1203 38.3308 9.1203 38.1484 9.1203 37.966C9.1203 30.5078 9.11802 23.0496 9.12775 15.5915C9.12819 15.2567 9.04841 15.0669 8.72804 14.9223C8.33545 14.7451 7.97883 14.4882 7.54946 14.2315C7.54946 22.0353 7.54946 29.7664 7.54946 37.5689C6.69275 37.084 5.92213 36.5648 5.08514 36.1964C4.15364 35.7864 3.99407 35.149 4.00016 34.1958C4.0454 27.1208 4.02469 20.0455 4.02469 12.9702C4.02469 12.7877 4.02469 12.6053 4.02469 12.4524C5.29125 11.7221 6.52942 11.0081 7.76507 10.2956C10.5134 11.8808 13.2556 13.4624 16.0716 15.0866C15.6497 15.3573 15.2577 15.6279 14.8476 15.8674C14.2733 16.2026 13.6915 16.5262 13.101 16.8318C12.772 17.002 12.6037 17.1898 12.6049 17.6101C12.6229 23.7197 12.6205 29.8294 12.6095 35.9391C12.6089 36.3129 12.6754 36.5432 13.0616 36.6886C13.4906 36.85 13.8849 37.1035 14.3036 37.2753Z" fill="#0099DC"/>
<path d="M25.073 7.41073C26.0982 8.01445 27.0914 8.59912 28.0872 9.1793C28.5172 9.42988 28.9526 9.67119 29.4581 9.95777C28.8748 10.301 28.3478 10.6159 27.8161 10.9226C27.2813 11.231 26.7501 11.5478 26.199 11.8244C26.0462 11.901 25.7862 11.9218 25.6466 11.8426C24.0667 10.9466 22.5007 10.0262 20.8913 9.08917C20.9687 9.01975 21.037 8.93519 21.1247 8.88346C22.117 8.29815 23.1171 7.72606 24.1042 7.13242C24.528 6.87757 24.71 7.37976 25.073 7.41073Z" fill="#0099DC"/>
</svg>
