<svg width="2589" height="846" viewBox="0 0 2589 846" fill="none" xmlns="http://www.w3.org/2000/svg">
<path d="M370.156 1.51849e-08C374.017 2.42528 377.366 5.01105 380.942 7.23912C386.658 10.8009 392.495 14.1746 398.339 17.5283C401.121 19.1246 404.101 20.3821 406.878 21.9853C412.694 25.3424 418.386 28.9119 424.221 32.2355C430.205 35.6441 436.347 38.7805 442.331 42.1893C448.027 45.4342 453.595 48.9003 459.248 52.2224C461.885 53.7722 464.591 55.2055 467.26 56.7024C473.185 60.0262 479.088 63.3909 485.035 66.6755C491.371 70.1743 497.82 73.4759 504.084 77.0947C509.559 80.2579 514.785 83.843 520.232 87.0568C526.103 90.5211 532.136 93.7158 538.039 97.1289C543.856 100.492 549.548 104.069 555.388 107.392C561.374 110.799 567.519 113.93 573.505 117.337C579.198 120.576 584.731 124.093 590.42 127.339C593.444 129.065 596.732 130.337 599.759 132.058C605.28 135.196 610.659 138.577 616.164 141.743C622.316 145.281 628.579 148.629 634.725 152.177C640.306 155.398 645.765 158.827 651.333 162.07C657.265 165.525 663.288 168.826 669.223 172.275C675.025 175.648 680.704 179.231 686.552 182.522C692.67 185.965 698.979 189.072 705.102 192.507C710.598 195.589 715.944 198.933 721.377 202.127C724.244 203.814 727.014 205.776 730.078 206.993C734.616 208.794 736.493 211.559 736.446 216.562C736.228 239.467 736.351 262.376 736.351 285.284C736.351 287.105 736.351 288.927 736.351 290.385C730.673 293.434 725.347 296.229 720.084 299.135C710.268 304.554 700.427 309.934 690.717 315.538C685.479 318.561 680.605 322.207 675.363 325.223C669.071 328.842 662.472 331.935 656.175 335.547C650.731 338.669 645.615 342.353 640.187 345.508C634.113 349.037 627.809 352.177 621.684 355.623C616.19 358.713 610.797 361.98 605.371 365.188C602.614 366.817 599.918 368.548 597.131 370.124C591.249 373.45 585.343 376.736 579.414 379.978C572.93 383.523 566.307 386.83 559.934 390.559C554.521 393.726 549.488 397.532 544.084 400.715C538.157 404.207 531.96 407.244 525.95 410.602C520.337 413.739 514.815 417.037 509.252 420.262C503.957 423.33 498.661 426.395 492.678 429.859C492.678 406.465 492.678 384.212 492.678 362.757C484.827 357.938 477.621 353.333 470.233 349.035C463.227 344.958 455.993 341.268 448.927 337.288C443.069 333.988 437.365 330.42 431.495 327.142C425.265 323.661 418.843 320.515 412.648 316.975C407.136 313.825 401.891 310.216 396.398 307.029C390.373 303.532 384.171 300.335 378.098 296.917C373.095 294.101 368.194 291.109 363.202 288.276C356.355 284.39 349.408 280.676 342.61 276.709C337.052 273.465 331.709 269.859 326.162 266.596C320.352 263.177 314.373 260.042 308.54 256.661C302.647 253.246 296.909 249.564 290.981 246.213C284.987 242.823 278.791 239.786 272.779 236.426C267.165 233.29 261.689 229.911 256.127 226.682C253.254 225.015 250.29 223.499 247.429 221.813C241.617 218.387 235.918 214.768 230.04 211.46C223.959 208.037 217.663 204.99 211.568 201.59C206.064 198.519 200.72 195.167 195.274 191.991C192.772 190.531 190.185 189.214 187.654 187.803C179.44 183.225 171.171 178.739 163.046 174.011C157.586 170.834 152.421 167.156 146.963 163.976C140.948 160.472 134.755 157.27 128.628 153.957C123.952 151.427 119.215 149.001 114.64 146.303C114.192 146.039 114.288 143.476 114.818 143.176C122.767 138.682 130.888 134.488 138.851 130.018C146.54 125.702 154.06 121.092 161.715 116.716C170.104 111.921 178.57 107.261 186.987 102.514C195.633 97.6378 204.275 92.7528 212.891 87.8238C220.314 83.5772 227.73 79.3169 235.09 74.9634C241.479 71.1839 247.702 67.1228 254.147 63.4416C263.609 58.0372 273.27 52.9764 282.713 47.5419C288.15 44.4133 293.235 40.6874 298.641 37.502C304.572 34.0066 310.737 30.9034 316.715 27.4815C322.412 24.2203 327.981 20.7414 333.639 17.4126C336.276 15.8615 339.006 14.4682 341.664 12.9522C347.638 9.54469 353.592 6.10122 359.56 2.68232C360.744 2.00381 361.955 1.36983 363.165 0.357662C365.366 -2.75978e-06 367.556 -2.7343e-06 370.156 1.51849e-08ZM472.491 133.812C470.521 132.792 468.497 131.863 466.591 130.735C461.183 127.534 455.898 124.12 450.424 121.037C444.216 117.54 437.753 114.482 431.591 110.912C426.236 107.81 421.257 104.07 415.909 100.955C409.414 97.1712 402.692 93.7708 396.093 90.1596C390.17 86.918 384.229 83.7026 378.396 80.3065C375.029 78.3461 371.944 75.9021 368.542 74.0104C367.695 73.5388 365.94 74.0569 364.901 74.6421C359.361 77.7612 353.953 81.1085 348.425 84.2488C345.4 85.9678 342.152 87.3041 339.139 89.0425C333.567 92.2575 328.136 95.7136 322.567 98.9355C316.39 102.509 310.105 105.897 303.906 109.434C298.312 112.625 292.799 115.955 287.199 119.135C281.143 122.574 274.991 125.845 268.948 129.305C260.435 134.18 251.985 139.16 243.41 144.152C243.41 144.152 243.6 144.561 243.925 144.759C248.568 147.585 253.196 150.441 257.896 153.173C263.848 156.632 269.876 159.962 275.845 163.394C278.621 164.991 281.313 166.73 284.079 168.344C289.522 171.52 294.967 174.694 300.453 177.795C306.562 181.248 312.775 184.522 318.835 188.054C324.258 191.215 329.452 194.763 334.896 197.884C341.181 201.487 347.702 204.684 353.985 208.291C359.364 211.378 364.456 214.958 369.847 218.023C376.148 221.605 382.676 224.793 389.031 228.285C395.058 231.597 400.993 235.074 406.962 238.492C409.618 240.013 412.252 241.571 414.902 243.104C420.594 246.398 426.272 249.717 431.988 252.971C437.967 256.375 444.042 259.617 449.966 263.11C455.387 266.306 460.572 269.897 466.026 273.031C472.311 276.642 478.805 279.89 485.154 283.393C491.079 286.661 496.94 290.043 502.815 293.4C505.587 294.983 508.322 296.629 511.08 298.236C516.65 301.478 522.227 304.708 527.795 307.952C534.484 311.851 541.122 315.839 547.89 319.599C549.284 320.374 551.549 321.103 552.731 320.512C561.008 316.372 569.144 311.947 577.24 307.463C579.846 306.021 579.977 303.58 577.939 302.435C570.994 298.532 564.049 294.624 557.195 290.567C550.677 286.71 544.358 282.517 537.793 278.742C531.389 275.059 524.686 271.885 518.291 268.188C508.808 262.704 499.529 256.874 490.072 251.343C481.52 246.342 472.849 241.54 464.226 236.658C455.692 231.828 447.156 227.002 438.611 222.19C436.87 221.209 435.087 220.301 433.038 219.207C441.051 214.535 448.345 210.313 455.607 206.038C462.123 202.203 468.523 198.164 475.126 194.482C481.353 191.011 487.711 187.751 494.153 184.694C496.135 183.754 499.081 182.767 500.731 183.557C506.793 186.461 512.51 190.079 518.331 193.474C523.996 196.779 529.585 200.216 535.288 203.456C541.271 206.854 547.437 209.942 553.363 213.434C558.775 216.622 563.857 220.367 569.295 223.506C575.589 227.14 582.153 230.313 588.529 233.811C594.567 237.125 600.513 240.603 606.502 244.005C609.153 245.511 611.848 246.945 614.455 248.522C619.843 251.782 625.117 255.234 630.568 258.386C636.013 261.533 641.617 264.41 646.518 267.062C656.361 261.376 665.894 255.868 675.432 250.357C669.638 247.053 664.194 243.935 658.737 240.838C652.738 237.434 646.725 234.056 640.725 230.656C638.081 229.157 635.44 227.652 632.82 226.112C627.267 222.851 621.765 219.503 616.176 216.305C610.089 212.822 603.899 209.515 597.805 206.044C592.102 202.795 586.501 199.369 580.789 196.135C574.825 192.757 568.695 189.661 562.798 186.173C557.401 182.981 552.327 179.249 546.913 176.087C540.534 172.362 533.93 169.017 527.447 165.466C521.524 162.221 515.625 158.934 509.731 155.638C507.054 154.141 504.41 152.585 501.758 151.044C496.072 147.74 490.358 144.48 484.716 141.102C480.84 138.781 477.066 136.293 472.491 133.812Z" fill="#0099DC"/>
<path d="M509.328 657.175C504.937 659.886 500.657 662.236 496.375 664.581C488.04 669.146 479.635 673.589 471.392 678.31C464.865 682.05 458.632 686.294 452.096 690.02C442.739 695.353 433.167 700.316 423.802 705.637C418.362 708.728 413.222 712.334 407.811 715.478C403.363 718.062 398.714 720.307 393.087 723.264C393.087 720.217 393.087 718.618 393.087 717.019C393.087 696.342 393.381 675.659 392.888 654.993C392.759 649.608 395.486 647.652 399.191 645.545C410.751 638.971 422.239 632.269 433.879 625.836C440.25 622.316 446.982 619.433 453.349 615.905C459.817 612.321 465.955 608.156 472.385 604.499C481.856 599.112 491.501 594.025 500.99 588.668C507.499 584.994 513.808 580.974 520.315 577.298C526.735 573.672 533.396 570.457 539.759 566.74C545.169 563.58 550.166 559.723 555.598 556.605C562.73 552.512 570.174 548.953 577.363 544.953C583.076 541.774 588.564 538.204 594.232 534.944C600.184 531.521 606.256 528.3 612.233 524.917C617.944 521.684 623.592 518.341 629.284 515.074C632.063 513.479 634.907 511.994 637.671 510.375C643.551 506.93 649.328 503.305 655.28 499.986C661.367 496.591 667.668 493.571 673.772 490.204C679.183 487.219 684.432 483.951 689.79 480.871C692.93 479.065 696.18 477.448 699.314 475.632C704.871 472.411 710.344 469.049 715.913 465.849C721.966 462.371 728.079 458.994 734.202 455.638C734.622 455.408 735.348 455.722 736.261 455.818C736.261 457.727 736.261 459.532 736.261 461.338C736.26 517.591 736.145 573.845 736.447 630.097C736.475 635.396 733.982 637.494 730.254 639.598C724.265 642.978 718.315 646.429 712.285 649.737C705.932 653.222 699.416 656.425 693.137 660.032C687.7 663.156 682.573 666.803 677.167 669.982C671.257 673.458 665.158 676.618 659.188 679.998C653.489 683.224 647.873 686.595 642.178 689.829C636.089 693.287 629.921 696.611 623.839 700.082C618.257 703.269 612.75 706.586 607.198 709.825C604.453 711.427 601.684 712.989 598.922 714.561C593.057 717.9 587.227 721.301 581.313 724.552C574.97 728.04 568.463 731.24 562.184 734.834C556.739 737.951 551.582 741.559 546.171 744.738C540.249 748.217 534.158 751.413 528.182 754.806C522.474 758.046 516.823 761.384 511.143 764.673C508.495 766.206 505.855 767.756 503.181 769.246C497.296 772.526 491.404 775.796 485.491 779.028C479.027 782.56 472.463 785.919 466.082 789.59C460.72 792.676 455.654 796.264 450.283 799.334C443.996 802.927 437.438 806.055 431.153 809.652C425.713 812.767 420.562 816.371 415.156 819.548C409.237 823.027 403.145 826.218 397.18 829.622C391.487 832.87 385.896 836.295 380.191 839.522C376.204 841.776 372.131 843.889 368.015 845.902C367.412 846.198 366.265 845.765 365.528 845.376C359.017 841.945 352.469 838.574 346.078 834.934C339.532 831.205 333.201 827.109 326.686 823.324C317.025 817.71 307.286 812.228 297.323 806.544C297.323 713.03 297.323 619.1 297.323 524.395C300.59 526.115 303.43 527.546 306.208 529.085C315.858 534.428 325.523 539.747 335.112 545.196C342.768 549.546 350.248 554.206 357.987 558.401C359.449 559.193 362.099 559.089 363.63 558.307C373.234 553.401 382.763 548.337 392.138 543.016C397.581 539.927 402.632 536.169 407.978 532.901C410.234 531.521 412.868 530.758 415.204 529.488C423.559 524.944 431.904 520.378 440.169 515.676C446.623 512.004 452.892 508.014 459.352 504.352C468.932 498.922 478.651 493.73 488.229 488.295C494.666 484.643 500.896 480.634 507.335 476.983C516.932 471.541 526.701 466.392 536.268 460.899C545.743 455.46 555.004 449.655 564.464 444.19C570.842 440.504 577.485 437.268 583.858 433.573C589.283 430.428 594.394 426.752 599.822 423.61C605.888 420.098 612.198 417.002 618.319 413.578C623.813 410.505 629.197 407.239 634.622 404.043C637.374 402.422 640.075 400.712 642.857 399.141C648.723 395.83 654.606 392.548 660.519 389.32C666.982 385.794 673.555 382.461 679.952 378.822C685.218 375.826 690.217 372.371 695.478 369.365C701.877 365.708 708.506 362.447 714.883 358.757C720.299 355.624 725.439 352.028 730.832 348.853C732.217 348.037 734.093 348.038 736.262 347.546C736.262 350.633 736.262 353.036 736.262 355.438C736.261 374.747 735.99 394.061 736.437 413.36C736.56 418.646 735.068 421.852 730.508 424.1C724.101 427.258 717.645 430.344 711.403 433.801C704.83 437.442 698.559 441.613 692.021 445.318C682.527 450.698 672.833 455.732 663.379 461.178C657.956 464.302 652.955 468.138 647.555 471.307C641.634 474.782 635.433 477.788 629.428 481.13C623.82 484.251 618.318 487.559 612.754 490.76C606.695 494.246 600.601 497.675 594.553 501.182C588.883 504.47 583.264 507.844 577.601 511.144C574.968 512.678 572.286 514.13 569.623 515.611C563.717 518.897 557.829 522.214 551.896 525.451C545.425 528.983 538.816 532.278 532.447 535.978C527.03 539.125 521.971 542.873 516.567 546.043C510.638 549.52 504.462 552.583 498.455 555.934C492.839 559.067 487.298 562.331 481.734 565.556C479.1 567.082 476.52 568.702 473.864 570.19C467.987 573.482 462.09 576.741 456.176 579.969C449.587 583.566 442.903 586.997 436.388 590.719C431.131 593.723 426.148 597.197 420.89 600.201C414.488 603.857 407.86 607.126 401.452 610.772C394.913 614.492 388.566 618.543 382.051 622.306C376.958 625.247 371.615 627.777 366.622 630.868C364.019 632.479 361.597 634.28 361.62 638.298C361.804 670.377 361.584 702.458 361.838 734.536C361.89 740.997 361.448 747.44 361.67 753.904C361.904 760.73 361.722 767.57 361.722 775.442C370.163 770.4 377.924 765.622 385.829 761.088C391.875 757.62 398.149 754.541 404.237 751.142C409.758 748.06 415.16 744.77 420.626 741.592C423.514 739.913 426.434 738.29 429.326 736.619C435.103 733.28 440.848 729.889 446.647 726.588C452.618 723.189 458.656 719.904 464.628 716.508C470.332 713.265 475.988 709.942 481.667 706.657C484.315 705.125 486.947 703.567 489.619 702.077C495.509 698.792 501.406 695.518 507.326 692.285C513.799 688.749 520.394 685.419 526.762 681.709C532.175 678.556 537.243 674.825 542.644 671.652C548.561 668.176 554.731 665.125 560.707 661.743C566.402 658.521 571.945 655.037 577.635 651.806C583.724 648.349 589.952 645.131 596.035 641.663C601.615 638.481 607.07 635.086 612.603 631.822C615.22 630.277 617.882 628.805 620.537 627.326C626.441 624.036 632.339 620.735 638.268 617.489C644.735 613.948 651.275 610.534 657.703 606.926C661.232 604.945 664.571 602.637 668.05 600.565C669.02 599.988 670.181 599.725 671.495 599.226C671.495 588.105 671.495 576.749 671.495 565.239C664.271 568.94 657.032 572.272 650.176 576.251C640.52 581.854 631.264 588.131 621.615 593.746C615.459 597.328 608.796 600.045 602.554 603.494C595.977 607.128 589.705 611.299 583.167 615.004C573.674 620.384 563.983 625.423 554.531 630.869C549.108 633.993 544.102 637.824 538.702 640.991C532.774 644.467 526.605 647.541 520.547 650.8C516.839 652.794 513.141 654.807 509.328 657.175Z" fill="#0099DC"/>
<path d="M250.306 777.405C242.209 773.035 233.988 768.879 226.051 764.236C217.399 759.175 209.117 753.484 200.476 748.403C193.504 744.305 186.189 740.794 179.118 736.858C173.373 733.659 167.814 730.126 162.081 726.905C155.769 723.36 149.262 720.158 143.008 716.517C137.561 713.345 132.429 709.634 127.008 706.413C121.154 702.935 115.133 699.736 109.171 696.441C105.378 694.344 101.557 692.299 97.7545 690.219C96.6548 689.618 95.5768 688.976 94.0484 688.101C94.0484 544.794 94.0484 401.028 94.0484 257.802C84.1927 252.152 74.806 246.77 64.4792 240.849C64.4792 384.787 64.4792 527.407 64.4792 670.404C54.0392 664.657 44.1436 659.254 34.2915 653.773C26.7146 649.558 19.1764 645.272 11.6534 640.961C8.51798 639.164 5.31514 637.421 2.45005 635.248C1.25653 634.343 0.663679 632.445 0.175287 630.881C-0.173652 629.763 0.106151 628.449 0.106151 627.222C0.106712 490.322 0.10733 353.421 0.107836 216.521C0.107892 206.958 0.26144 207.28 8.64755 203.275C14.6536 200.406 20.1598 196.499 25.9275 193.122C28.4392 191.651 31.0615 190.37 33.6088 188.958C39.5087 185.688 45.4151 182.428 51.2782 179.093C56.9647 175.858 62.5331 172.405 68.3232 169.372C69.3192 168.85 71.367 169.614 72.5813 170.354C77.9606 173.633 83.1072 177.301 88.54 180.483C94.5552 184.006 100.839 187.068 106.917 190.487C113.662 194.282 120.301 198.267 126.999 202.146C133.003 205.623 139.06 209.01 145.028 212.546C150.788 215.958 156.404 219.612 162.194 222.97C168.021 226.35 174.032 229.411 179.873 232.769C185.668 236.1 191.318 239.683 197.099 243.042C199.871 244.653 202.818 245.961 205.647 247.479C210.339 249.995 215.087 252.425 219.645 255.168C223.009 257.193 219.706 259.298 218.702 259.867C212.52 263.372 205.974 266.235 199.777 269.716C194.4 272.737 189.431 276.48 184.086 279.567C177.807 283.193 171.269 286.37 164.946 289.924C162.785 291.139 160.934 292.903 158.373 294.848C158.373 295.873 158.373 297.702 158.373 299.531C158.373 414.203 158.435 528.874 158.193 643.545C158.18 649.32 160.575 651.739 164.934 654.111C170.905 657.36 176.567 661.173 182.464 664.565C184.496 665.734 186.838 666.365 189.66 667.489C189.66 664.817 189.66 662.856 189.66 660.895C189.66 546.223 189.722 431.552 189.473 316.881C189.461 311.272 191.788 308.791 195.914 306.46C203.178 302.357 210.286 297.976 217.585 293.94C223.735 290.539 230.118 287.562 236.297 284.211C241.079 281.618 245.602 278.531 250.464 276.113C251.865 275.417 254.33 275.737 255.815 276.523C262.716 280.175 269.482 284.089 276.221 288.038C281.775 291.293 287.201 294.765 292.73 298.062C294.516 299.127 296.547 299.795 298.282 300.926C299.635 301.807 300.703 303.125 301.897 304.248C300.9 305.003 299.947 305.825 298.899 306.502C290.574 311.875 282.344 317.408 273.857 322.515C267.435 326.379 260.68 329.69 253.713 333.801C252.98 336.703 252.283 339.053 252.282 341.403C252.228 483.922 252.232 626.442 252.229 768.961C252.229 770.494 252.464 772.08 252.142 773.543C251.842 774.899 250.942 776.123 250.306 777.405Z" fill="#0099DC"/>
<path d="M433.927 143.814C437.819 146.261 441.254 148.816 444.875 151.053C450.57 154.573 456.383 157.89 462.162 161.264C463.236 161.892 464.385 162.385 466.569 163.474C462.178 166.325 458.278 169.025 454.222 171.45C448.663 174.774 442.988 177.894 437.357 181.092C430.898 184.76 424.426 188.403 417.976 192.087C413.68 194.541 408.832 196.393 405.29 199.706C401.443 203.304 399.541 199.447 397.229 198.465C393.624 196.935 390.504 194.225 387.123 192.108C381.362 188.5 375.618 184.858 369.755 181.429C363.926 178.02 357.897 174.969 352.071 171.553C346.468 168.267 341.064 164.626 335.48 161.306C329.64 157.833 323.659 154.61 317.804 151.163C315.78 149.972 313.949 148.436 311.046 146.35C317.233 142.765 322.807 139.614 328.306 136.329C333.751 133.075 339.087 129.628 344.533 126.374C350.462 122.83 356.464 119.415 362.43 115.937C364.569 114.69 367.111 113.833 368.752 112.089C373.197 107.364 376.918 110.949 380.629 112.876C387.096 116.234 393.513 119.735 399.718 123.572C408.082 128.745 416.16 134.402 424.499 139.619C427.299 141.371 430.523 142.412 433.927 143.814Z" fill="#0099DC"/>
<path d="M2589 325.955C2429.62 326.362 2270.24 326.352 2110.86 326.342C2108.96 326.342 2107.07 326.342 2104.89 326.342C2104.89 317.43 2104.89 308.92 2104.89 299.734C2265.98 299.734 2427.07 299.734 2588.58 299.735C2589 308.337 2589 316.938 2589 325.955Z" fill="#777777"/>
<path d="M786.763 300.15C948.039 299.734 1109.32 299.734 1270.88 299.734C1270.88 308.635 1270.88 317.145 1270.88 326.368C1109.77 326.368 948.686 326.368 787.18 326.369C786.763 317.769 786.763 309.167 786.763 300.15Z" fill="#777777"/>
<path d="M813.253 477.371C813.326 494.968 813.399 512.565 813.471 530.162C813.478 531.901 813.472 533.641 813.472 535.646C838.458 535.646 863.016 535.646 888.327 535.646C888.327 516.497 888.327 497.339 888.814 477.784C897.827 477.372 906.352 477.356 914.878 477.341C914.909 525.684 914.941 574.028 914.963 622.371C914.964 622.942 914.834 623.513 914.728 624.384C906.124 624.384 897.592 624.384 888.499 624.384C888.499 603.471 888.499 582.433 888.499 561.084C863.289 561.084 838.636 561.084 813.581 561.084C813.581 582.152 813.581 603.083 813.581 624.696C804.665 624.696 796.131 624.696 787.181 624.696C786.763 575.845 786.763 526.993 787.181 477.711C796.15 477.311 804.701 477.341 813.253 477.371Z" fill="#787878"/>
<path d="M2587.26 475.708C2587.65 475.663 2588.03 475.618 2588.71 475.553C2589 483.542 2589 491.551 2588.58 499.975C2563.6 500.39 2539.04 500.39 2514.48 500.39C2514.48 513.146 2514.48 525.21 2514.48 537.683C2539.5 537.683 2564.25 537.683 2589 537.683C2589 545.101 2589 552.518 2588.58 560.349C2563.64 560.763 2539.12 560.763 2514.54 560.763C2514.54 574.073 2514.54 586.813 2514.54 599.834C2539.59 599.834 2564.29 599.834 2589 599.834C2589 607.844 2589 615.853 2589 624.279C2555.37 624.695 2521.74 624.695 2487.52 624.695C2487.52 575.609 2487.52 526.887 2487.98 477.741C2519.35 477.314 2550.27 477.341 2581.19 477.239C2583.22 477.232 2585.24 476.241 2587.26 475.708Z" fill="#787878"/>
<path d="M1955.43 626.472C1954.52 625.894 1954.11 624.888 1953.55 624.802C1941.23 622.919 1930.93 617.354 1920.97 609.83C1911.46 602.638 1905.81 593.065 1900.37 583.233C1897.94 578.851 1897.98 573.184 1896.14 568.389C1893.01 560.237 1894.67 551.897 1894.59 543.674C1894.5 533.499 1897.61 523.892 1902.14 514.804C1906.26 506.512 1911.45 498.933 1918.85 493.2C1925.25 488.239 1931.49 483.277 1939.53 480.48C1945.95 478.243 1952.46 476.957 1958.88 475.141C1965.97 473.134 1972.93 473.397 1979.7 474.038C1989.71 474.988 1999.62 477.763 2008.25 483.316C2017.31 489.15 2024.99 496.54 2030.77 505.75C2031.9 507.557 2032.03 508.295 2029.53 509.439C2023.49 512.201 2017.84 515.786 2011.92 518.812C2010.96 519.303 2008.92 519.114 2008.21 518.408C2005.83 516.055 2004.17 512.917 2001.62 510.833C1997.68 507.619 1993.42 504.671 1988.95 502.253C1981.33 498.13 1972.73 497.577 1964.53 498.863C1956.53 500.116 1949.16 503.56 1942.23 508.432C1933.91 514.282 1929.65 522.63 1925.24 530.981C1923.58 534.114 1923.27 538.136 1923.05 541.795C1922.7 547.396 1922.56 553.067 1923.05 558.647C1923.73 566.47 1925.88 573.942 1930.9 580.283C1932.87 582.766 1934.85 585.236 1936.82 587.717C1942.1 594.376 1949.22 597.948 1957.31 599.943C1961.55 600.987 1965.71 602.983 1969.96 603.153C1974.41 603.331 1978.97 602.035 1983.39 600.999C1986.21 600.338 1989.06 599.308 1991.56 597.869C1997.81 594.273 2002.97 589.477 2006.97 583.366C2007.56 582.459 2010.47 582.192 2011.8 582.78C2017.46 585.286 2022.89 588.287 2028.47 590.981C2031.88 592.628 2032.31 594.244 2029.85 597.06C2025.6 601.924 2021.9 607.409 2017.03 611.543C2010.96 616.698 2004.02 620.847 1996.1 622.982C1993.63 623.648 1991.3 624.818 1988.87 626.115C1977.85 626.472 1966.84 626.472 1955.43 626.472Z" fill="#787878"/>
<path d="M1509.79 316.602C1509.79 291.337 1509.79 266.515 1509.79 241.414C1518.74 241.414 1527.27 241.414 1536.16 241.414C1536.16 288.496 1536.16 335.58 1536.16 383.174C1527.95 383.174 1519.84 383.218 1511.73 383.106C1510.94 383.095 1509.96 382.281 1509.42 381.573C1505.36 376.267 1501.38 370.903 1497.4 365.541C1495.1 362.441 1492.77 359.361 1490.57 356.186C1486.8 350.731 1483.2 345.162 1479.39 339.735C1477.4 336.904 1475.11 334.288 1472.98 331.552C1467 323.841 1460.93 316.19 1455.08 308.377C1450.34 302.039 1445.84 295.514 1441.29 289.036C1440.59 288.041 1440.16 286.853 1438.81 285.772C1438.81 318.09 1438.81 350.408 1438.81 382.957C1429.54 382.957 1421 382.957 1412.16 382.957C1412.16 335.865 1412.16 288.884 1412.16 241.133C1417.43 241.133 1422.85 241.133 1428.26 241.133C1429.6 241.133 1431.02 241.439 1432.25 241.083C1439.68 238.933 1442.2 244.813 1445.51 249.153C1447.84 252.201 1449.52 255.732 1451.83 258.799C1457.71 266.623 1463.82 274.276 1469.75 282.06C1475.12 289.106 1480.4 296.227 1485.69 303.328C1490.69 310.016 1495.72 316.673 1500.6 323.439C1503.39 327.303 1505.92 331.356 1508.56 335.325C1508.97 335.193 1509.38 335.061 1509.79 334.929C1509.79 328.968 1509.79 323.007 1509.79 316.602Z" fill="#787878"/>
<path d="M2366.44 477.28C2375.23 476.4 2383.76 478.274 2390.88 482.925C2396.57 486.649 2401.07 492.372 2405.6 497.637C2414.02 507.423 2413.37 519.507 2412.45 531.13C2411.93 537.755 2409.13 544.075 2405.27 549.976C2400.42 557.388 2393.57 561.592 2385.87 564.924C2383.81 565.814 2381.48 566.08 2378.91 566.725C2390.73 585.773 2402.57 604.866 2414.87 624.681C2404.17 624.681 2394.27 625.05 2384.45 624.374C2382.45 624.237 2380.53 620.296 2378.93 617.875C2376.27 613.85 2373.92 609.62 2371.39 605.506C2368.66 601.06 2365.8 596.688 2363.13 592.211C2359.71 586.502 2355.93 580.936 2353.23 574.901C2351.1 570.139 2348 569.319 2343.43 569.572C2337.68 569.891 2331.9 569.649 2325.56 569.649C2325.56 587.995 2325.56 606.083 2325.56 624.43C2316.46 624.43 2307.93 624.43 2298.76 624.43C2298.76 575.663 2298.76 526.92 2299.25 477.779C2321.97 477.347 2344.21 477.313 2366.44 477.28ZM2340.13 500.393C2335.3 500.393 2330.47 500.393 2325.71 500.393C2325.71 515.542 2325.71 529.968 2325.71 544.793C2338.41 544.793 2350.84 544.801 2363.26 544.791C2371.52 544.784 2378.09 541.531 2381.8 534.039C2385.53 526.5 2386.27 518.311 2381.46 511.224C2376.5 503.911 2368.84 500.288 2359.7 500.38C2353.48 500.443 2347.25 500.393 2340.13 500.393Z" fill="#787878"/>
<path d="M1705.18 385.024C1703.04 385.617 1701.32 386.525 1699.54 386.661C1696.15 386.921 1692.67 387.098 1689.32 386.672C1681.35 385.661 1673.53 384.366 1665.73 381.826C1653.59 377.867 1643.68 371.022 1635.54 361.75C1630.49 356.001 1626.62 349.338 1623.44 342.033C1617.33 328.005 1618.14 313.556 1618.7 299.133C1618.92 293.404 1621.86 287.74 1623.79 282.124C1627.04 272.666 1632.85 264.83 1639.91 257.871C1645.97 251.901 1653.5 248.17 1661.12 244.765C1668.88 241.291 1677.01 239.005 1685.73 239.252C1688.32 239.326 1691.36 237.053 1693.48 237.822C1701.29 240.658 1709.62 239.171 1717.64 242.402C1727.52 246.38 1736.01 251.644 1743.55 258.77C1745.97 261.055 1748.36 263.671 1749.81 266.603C1751.48 269.983 1747.64 271.406 1745.77 272.774C1742 275.523 1737.73 277.649 1733.48 279.647C1731.87 280.407 1729.75 280.11 1727.99 280.282C1726.01 276.059 1723.46 273.018 1719.36 271.151C1716.51 269.851 1714.19 267.382 1711.34 266.096C1705.03 263.254 1698.34 262.202 1691.35 262.36C1682.06 262.571 1674.21 265.645 1666.14 270.421C1655.95 276.455 1650.92 285.86 1647.44 295.656C1644.68 303.399 1644.44 312.672 1645.47 320.972C1647.1 334.183 1653.75 345.493 1664.71 353.508C1668.75 356.467 1673.85 358.005 1678.51 360.113C1686.21 363.602 1694.44 362.111 1702.28 361.563C1707.68 361.187 1712.83 357.714 1718.14 355.768C1724.24 353.533 1726.05 349.179 1725.37 343.011C1724.93 338.93 1725.29 334.761 1725.29 329.915C1723.48 329.915 1721.93 329.915 1720.37 329.915C1709.54 329.915 1698.7 329.705 1687.88 330.016C1683.45 330.143 1682.21 328.644 1682.51 324.454C1682.84 319.744 1682.66 314.991 1682.56 310.259C1682.51 307.83 1683.42 306.809 1685.92 306.814C1707.71 306.862 1729.5 306.842 1751.68 306.842C1751.8 308.337 1751.98 309.605 1751.98 310.873C1752 326.553 1752.08 342.234 1751.89 357.912C1751.87 359.79 1750.92 362.306 1749.52 363.41C1742.64 368.828 1735.72 374.309 1728.27 378.865C1724.33 381.267 1719.3 381.935 1714.7 383.173C1711.72 383.977 1708.63 384.398 1705.18 385.024Z" fill="#787878"/>
<path d="M1819.77 477.25C1820.32 478.677 1821.36 480.103 1821.36 481.533C1821.46 508.463 1821.43 535.393 1821.43 562.324C1821.43 581.264 1821.43 600.204 1821.43 619.144C1821.43 620.757 1821.43 622.369 1821.43 624.339C1811.93 624.339 1802.7 624.339 1793.03 624.339C1793.03 603.249 1793.03 582.308 1793.03 561.069C1768.03 561.069 1743.47 561.069 1718.33 561.069C1718.33 582.025 1718.33 603.077 1718.33 624.41C1709.23 624.41 1700.69 624.41 1691.47 624.41C1691.47 575.677 1691.47 526.921 1691.93 477.742C1700.92 477.33 1709.45 477.341 1717.99 477.353C1717.99 496.685 1717.99 516.017 1717.99 535.63C1743.1 535.63 1767.65 535.63 1792.76 535.63C1792.82 534.172 1792.95 532.617 1792.95 531.063C1792.96 514.652 1792.94 498.241 1793 481.83C1793.01 480.35 1793.58 478.871 1794.68 477.333C1803.57 477.266 1811.67 477.258 1819.77 477.25Z" fill="#787878"/>
<path d="M2175.9 477.275C2177.02 479.348 2178.35 481.338 2179.24 483.508C2182.89 492.471 2186.4 501.491 2189.98 510.484C2193.45 519.198 2197.06 527.857 2200.37 536.632C2202.52 542.35 2204.09 548.286 2206.21 554.023C2207.92 558.682 2210.14 563.155 2211.99 567.771C2214.85 574.949 2217.52 582.205 2220.4 589.378C2223.02 595.896 2225.88 602.316 2228.48 608.837C2230.08 612.821 2231.38 616.919 2232.84 620.955C2233.21 621.975 2233.69 622.956 2234.26 624.31C2223.96 624.31 2213.71 624.31 2202.75 624.31C2200.38 617.404 2197.81 610.086 2195.36 602.73C2193.66 597.629 2191.91 596.284 2186.4 596.284C2167.87 596.282 2149.33 596.515 2130.8 596.112C2126.44 596.017 2125.38 598.418 2124.31 601.178C2121.7 607.961 2119.55 614.926 2116.85 621.671C2116.31 623.013 2114.16 624.515 2112.71 624.558C2103.69 624.821 2094.66 624.691 2084.51 624.691C2085.4 622.085 2086.02 620.06 2086.78 618.091C2089.13 612.02 2091.54 605.974 2093.91 599.911C2098.08 589.233 2102.16 578.516 2106.44 567.88C2109.16 561.098 2112.39 554.514 2115.01 547.693C2118.33 539.043 2121.1 530.186 2124.41 521.53C2126.28 516.618 2128.97 512.015 2130.9 507.118C2133.62 500.181 2135.86 493.055 2138.55 486.103C2139.73 483.067 2141.5 480.263 2143.76 477.312C2154.98 477.271 2165.44 477.273 2175.9 477.275ZM2158.43 507.772C2157.95 509.41 2157.6 511.1 2156.96 512.676C2155.01 517.532 2152.85 522.307 2150.95 527.182C2148.65 533.059 2146.55 539.01 2144.35 544.921C2143 548.547 2141.59 552.151 2140.24 555.777C2138.74 559.787 2137.27 563.805 2135.82 567.832C2135.45 568.874 2135.2 569.961 2134.85 571.206C2151.19 571.206 2166.85 571.206 2183.56 571.206C2182.33 567.384 2181.36 564.01 2180.17 560.718C2178.84 557.061 2177.25 553.498 2175.87 549.86C2173.62 543.954 2171.41 538.031 2169.25 532.094C2167.83 528.176 2166.7 524.143 2165.1 520.301C2163.31 516.013 2161.15 511.881 2158.43 507.772Z" fill="#787878"/>
<path d="M1248.11 477.248C1249.81 479.972 1251.82 482.555 1253.13 485.454C1255.18 490.024 1256.8 494.795 1258.54 499.503C1260.41 504.556 1262.11 509.673 1264.06 514.693C1268.13 525.136 1272.26 535.555 1276.47 545.942C1279.31 552.951 1282.48 559.825 1285.22 566.873C1288.99 576.59 1292.35 586.463 1296.13 596.176C1298.77 602.952 1301.92 609.529 1304.62 616.283C1305.62 618.804 1306 621.575 1306.78 624.679C1297.05 624.679 1287.7 625.07 1278.43 624.366C1276.45 624.217 1274.27 620.319 1273.09 617.736C1271.35 613.931 1270.54 609.715 1269.11 605.752C1268 602.65 1266.56 599.664 1265.2 596.478C1243.08 596.478 1220.87 596.478 1199.09 596.478C1195.54 606.017 1192.11 615.246 1188.68 624.465C1178.19 624.465 1167.86 624.465 1157.05 624.465C1159.14 619.062 1161.1 614.011 1163.05 608.952C1164.68 604.718 1166.2 600.442 1167.91 596.243C1169.84 591.516 1172.03 586.896 1173.91 582.152C1176.17 576.477 1178.15 570.696 1180.37 565.007C1182.02 560.761 1183.92 556.607 1185.63 552.38C1188.05 546.379 1190.37 540.334 1192.8 534.333C1196.27 525.733 1199.83 517.166 1203.31 508.566C1206.92 499.635 1210.67 490.749 1213.92 481.688C1214.72 479.452 1214.43 476.9 1217.54 475.965C1219.58 476.617 1221.09 477.245 1222.61 477.259C1231.11 477.337 1239.61 477.267 1248.11 477.248ZM1246.25 543.373C1241.85 531.52 1237.45 519.667 1232.7 506.863C1231.68 508.892 1230.81 510.341 1230.2 511.893C1228.74 515.665 1227.52 519.531 1225.98 523.273C1223.34 529.742 1220.29 536.058 1217.84 542.598C1214.29 552.077 1211.13 561.697 1207.84 571.122C1223.92 571.122 1240.26 571.122 1256.69 571.122C1254.31 564.409 1252.09 557.975 1249.73 551.595C1248.78 549.038 1247.5 546.601 1246.25 543.373Z" fill="#787878"/>
<path d="M1096.74 477.25C1097.29 478.085 1098.31 478.911 1098.32 479.757C1098.45 486.397 1098.4 493.041 1098.4 500.241C1073.5 500.241 1048.83 500.241 1023.89 500.241C1023.89 512.856 1023.89 524.915 1023.89 537.536C1047.94 537.536 1072.01 537.536 1096.35 537.536C1096.35 545.414 1096.35 552.739 1096.35 560.629C1072.29 560.629 1048.22 560.629 1023.89 560.629C1023.89 573.839 1023.89 586.491 1023.89 599.746C1048.54 599.746 1073.19 599.746 1098.12 599.746C1098.12 608.254 1098.12 616.163 1098.12 624.386C1063.99 624.386 1029.95 624.386 995.345 624.386C995.279 622.935 995.146 621.38 995.146 619.825C995.135 573.829 995.128 527.832 995.176 481.836C995.177 480.356 995.754 478.876 996.856 477.335C1030.68 477.266 1063.71 477.258 1096.74 477.25Z" fill="#787878"/>
<path d="M1938.98 319.262C1940.75 323.705 1942.55 327.766 1944.22 331.878C1947.14 339.031 1950.08 346.176 1952.82 353.398C1955.47 360.398 1957.79 367.519 1960.42 374.528C1961.43 377.223 1962.87 379.756 1964.5 383.175C1954.27 383.175 1944.85 383.241 1935.44 383.077C1934.45 383.06 1932.96 381.885 1932.59 380.912C1929.65 373.098 1926.93 365.203 1923.98 356.883C1902.8 356.883 1881.09 356.883 1860.03 356.883C1857.88 361.837 1855.74 366.458 1853.87 371.187C1852.9 373.649 1852.72 376.445 1851.59 378.816C1850.79 380.508 1849.07 382.935 1847.68 382.991C1838.51 383.365 1829.32 383.184 1819.24 383.184C1820.1 381.43 1820.72 380.313 1821.21 379.142C1824.24 371.891 1827.34 364.668 1830.21 357.356C1832.75 350.9 1834.89 344.291 1837.44 337.839C1840.22 330.776 1843.48 323.893 1846.15 316.79C1849.46 307.985 1852.28 298.999 1855.51 290.161C1856.98 286.135 1858.95 282.294 1860.63 278.34C1863 272.756 1865.39 267.175 1867.62 261.537C1870.27 254.865 1872.76 248.132 1875.37 241.298C1886.21 241.298 1897.02 241.298 1907.78 241.298C1911 248.587 1914.44 255.773 1917.37 263.159C1921.22 272.865 1924.55 282.777 1928.34 292.507C1931.03 299.41 1934.15 306.145 1937 312.988C1937.79 314.9 1938.31 316.928 1938.98 319.262ZM1885.11 333.472C1895.28 333.472 1905.44 333.472 1916.18 333.472C1907.88 311.736 1899.86 290.719 1891.72 269.421C1883.59 290.878 1875.63 311.904 1867.46 333.472C1873.58 333.472 1878.9 333.472 1885.11 333.472Z" fill="#787878"/>
<path d="M1620.04 477.351C1620.04 484.855 1620.04 492.359 1620.04 500.262C1605.31 500.262 1590.84 500.262 1575.82 500.262C1575.82 541.821 1575.82 582.982 1575.82 624.417C1566.73 624.417 1558.2 624.417 1549.11 624.417C1549.11 583.262 1549.11 542.101 1549.11 500.534C1534.1 500.534 1519.62 500.534 1504.48 500.534C1504.48 492.818 1504.48 485.491 1504.94 477.741C1543.61 477.329 1581.82 477.34 1620.04 477.351Z" fill="#787878"/>
<path d="M1399.21 477.356C1399.26 496.28 1399.34 515.203 1399.37 534.126C1399.4 554.236 1399.37 574.346 1399.37 594.455C1399.37 596.056 1399.37 597.657 1399.37 599.648C1420.74 599.648 1441.73 599.648 1463.11 599.648C1463.11 608.06 1463.11 616.08 1463.11 624.404C1432.63 624.404 1402.15 624.404 1371.12 624.404C1371.06 622.924 1370.93 621.369 1370.92 619.814C1370.91 573.828 1370.91 527.841 1370.95 481.855C1370.96 480.374 1371.53 478.894 1372.63 477.345C1382.01 477.303 1390.61 477.33 1399.21 477.356Z" fill="#777777"/>
</svg>
