<svg width="2034" height="1427" viewBox="0 0 2034 1427" fill="none" xmlns="http://www.w3.org/2000/svg">
<path d="M1024.15 0C1026.56 2.05685 1027.64 4.88017 1029.68 6.05968C1100.19 46.9754 1170.79 87.7569 1241.4 128.513C1298.31 161.358 1355.3 194.045 1412.02 227.208C1415.42 229.191 1418.57 234.721 1418.67 238.68C1419.28 263.109 1419.12 287.563 1418.78 312.002C1418.74 314.955 1416.89 319.234 1414.53 320.605C1365.41 349.231 1316.06 377.475 1266.81 405.904C1231.53 426.274 1196.34 446.81 1161.1 467.249C1159.18 468.359 1157.14 469.251 1153.67 470.988C1153.67 448.534 1153.33 427.28 1153.87 406.049C1154.04 399.061 1151.45 395.957 1145.61 392.636C1101.06 367.281 1056.79 341.43 1012.41 315.793C971.447 292.137 930.394 268.646 889.48 244.912C848.831 221.333 808.326 197.505 767.707 173.874C759.224 168.938 750.519 164.385 740.205 158.715C752.449 151.549 763.562 144.989 774.727 138.519C839.275 101.109 903.864 63.7676 968.371 26.2865C982.511 18.0703 996.377 9.38096 1009.66 0.454767C1013.73 1.3032e-07 1018.49 0 1024.15 0ZM939.21 191.205C971.302 209.897 1003.36 228.645 1035.5 247.27C1091.83 279.926 1148.21 312.523 1204.6 345.086C1208.81 347.515 1214.41 352.327 1217.44 351.134C1228.39 346.812 1238.52 340.4 1250.51 333.944C1195.33 302.054 1142.53 271.545 1088.74 240.461C1111.06 227.522 1131.93 214.986 1153.33 203.447C1156.99 201.474 1163.86 202.141 1167.7 204.326C1217.39 232.666 1266.78 261.532 1316.34 290.103C1318.37 291.276 1321.91 291.95 1323.76 290.982C1333.36 285.978 1342.63 280.363 1352.74 274.545C1240.26 209.594 1128.56 145.088 1016.85 80.5866C972.223 106.341 927.596 132.096 881.957 158.434C900.903 169.429 919.333 180.125 939.21 191.205Z" fill="#0099DC"/>
<path d="M0 1058.12C181.805 1057.19 363.611 1057.19 546.053 1057.19C546.053 1067.28 546.053 1076.5 546.053 1087.31C364.656 1087.31 183.27 1087.31 0.941885 1087.32C-8.68813e-08 1077.91 0 1068.48 0 1058.12Z" fill="#777777"/>
<path d="M2034 1086.4C1852.2 1087.33 1670.39 1087.33 1487.95 1087.33C1487.95 1077.14 1487.95 1067.93 1487.95 1057.18C1669.34 1057.18 1850.73 1057.18 2033.06 1057.18C2034 1066.61 2034 1076.04 2034 1086.4Z" fill="#777777"/>
<path d="M1707.33 1427C1706.39 1373.53 1706.53 1320.07 1706.23 1266.6C1706.19 1258.9 1708.04 1255.92 1716.25 1256.26C1741.24 1257.27 1766.27 1257.23 1791.26 1258.29C1811.62 1259.16 1832.19 1278.25 1834.68 1299.57C1837.98 1327.98 1828.54 1350.96 1797.36 1359.93C1809.15 1379.19 1820.93 1398.29 1832.48 1417.52C1834.06 1420.15 1834.52 1423.44 1836.27 1426.71C1825.6 1427 1814.17 1427 1802.29 1426.37C1790.5 1406.77 1779.23 1387.73 1767.68 1368.87C1766.16 1366.38 1763.34 1363.25 1760.87 1363.01C1753.06 1362.26 1745.13 1362.73 1736.54 1362.73C1736.54 1385.08 1736.54 1406.04 1736.54 1427C1727.11 1427 1717.69 1427 1707.33 1427ZM1740.2 1284.39C1739.05 1285.34 1736.92 1286.28 1736.91 1287.24C1736.7 1302.79 1736.76 1318.35 1736.76 1334.55C1751.34 1334.55 1764.66 1334.61 1777.97 1334.54C1791.5 1334.47 1801.16 1326.81 1802.81 1315C1804.82 1300.71 1799.17 1289.17 1785.7 1286.74C1771.49 1284.18 1756.66 1284.99 1740.2 1284.39Z" fill="#787878"/>
<path d="M1021.96 1427C1021.02 1371.17 1021.02 1315.35 1021.02 1258.85C1031.06 1258.85 1040.28 1258.85 1050.8 1258.85C1050.8 1280.18 1050.8 1301.72 1050.8 1323.87C1079.39 1323.87 1106.7 1323.87 1135.3 1323.87C1135.3 1302.4 1135.3 1280.87 1135.3 1258.76C1146.47 1258.76 1156.36 1258.76 1166.84 1258.76C1167.14 1260.69 1167.68 1262.58 1167.68 1264.46C1167.72 1316.38 1167.72 1368.3 1167.69 1420.22C1167.69 1421.88 1167.34 1423.53 1167.45 1426.1C1157.65 1427 1147.55 1427 1136.83 1426.1C1136.2 1401.3 1136.2 1377.4 1136.2 1353.39C1106.8 1353.39 1079.32 1353.39 1051.17 1353.39C1051.17 1378.43 1051.17 1402.71 1051.17 1427C1041.74 1427 1032.32 1427 1021.96 1427Z" fill="#787878"/>
<path d="M1466.14 1427C1469.68 1414.09 1473.76 1401.03 1478.69 1388.3C1494.17 1348.34 1510.05 1308.55 1525.55 1268.6C1528.3 1261.49 1531.37 1256.92 1540.36 1257.94C1549.58 1258.98 1559 1258.17 1568.38 1258.17C1589.49 1311.71 1610.42 1364.68 1631.21 1417.71C1632.24 1420.36 1632.06 1423.48 1633.24 1426.69C1622.6 1427 1611.17 1427 1599.25 1426.31C1595.72 1417.3 1592.65 1409 1589.65 1400.67C1587.84 1395.62 1585.34 1392.53 1578.96 1392.67C1558.65 1393.12 1538.32 1392.69 1518.01 1393.03C1515.41 1393.08 1511.45 1395.11 1510.53 1397.26C1506.34 1406.97 1503.01 1417.05 1499.37 1427C1488.61 1427 1477.85 1427 1466.14 1427ZM1553.87 1303.32C1552.41 1299.8 1550.95 1296.27 1548.89 1291.31C1539.37 1316.54 1530.48 1340.09 1521.51 1363.84C1540.08 1363.84 1557.78 1363.84 1576.53 1363.84C1569.01 1343.35 1561.89 1323.96 1553.87 1303.32Z" fill="#787878"/>
<path d="M418.996 1427C424.012 1411.19 429.837 1395.34 435.95 1379.59C451.669 1339.11 467.516 1298.67 483.327 1258.17C493.175 1258.17 502.832 1258.98 512.285 1257.93C520.97 1256.97 523.845 1261.51 526.439 1268.19C545.399 1316.98 564.537 1365.7 583.481 1414.5C584.843 1418.01 585.111 1421.94 586.386 1426.34C576.123 1427 565.36 1427 554.116 1426.34C549.964 1416.93 546.648 1408.02 542.421 1399.56C541.005 1396.72 537.304 1393.19 534.578 1393.13C511.645 1392.62 488.695 1392.84 464.803 1392.84C461.241 1404.35 457.737 1415.68 454.233 1427C442.801 1427 431.369 1427 418.996 1427ZM481.323 1346.67C479.404 1352.46 477.485 1358.25 475.484 1364.28C493.932 1364.28 511.521 1364.28 530.414 1364.28C521.324 1340.04 512.531 1316.58 502.792 1290.61C495.321 1310.44 488.75 1327.89 481.323 1346.67Z" fill="#787878"/>
<path d="M4.07314e-06 1257.1C9.49314 1257.18 18.9863 1258.2 29.7762 1259.35C29.7762 1280.19 29.7762 1301.7 29.7762 1323.85C58.2826 1323.85 85.5556 1323.85 114.084 1323.85C114.084 1302.59 114.084 1281.08 114.084 1258.14C124.711 1258.14 134.14 1258.14 144.143 1258.14C144.249 1259.19 144.678 1261.47 144.679 1263.75C144.714 1315.91 144.707 1368.07 144.675 1420.22C144.674 1421.88 144.33 1423.53 144.429 1426.09C135.287 1427 125.862 1427 115.786 1426.09C115.135 1401.29 115.135 1377.39 115.135 1353.39C85.7709 1353.39 58.2885 1353.39 30.1482 1353.39C30.1482 1378.43 30.1482 1402.71 30.1482 1427C20.143 1427 10.1377 1427 0 1427C0 1370.68 5.33784e-08 1314.36 4.07314e-06 1257.1Z" fill="#787878"/>
<path d="M236.098 1427C235.161 1374.15 235.421 1321.31 234.943 1268.46C234.853 1258.47 238.175 1256.07 247.568 1256.22C278.025 1256.73 308.505 1256.81 338.958 1256.19C349.072 1255.98 353.249 1258.8 351.822 1269.12C351.194 1273.66 351.716 1278.35 351.716 1283.89C323.6 1283.89 296.289 1283.89 268.149 1283.89C268.149 1298.26 268.149 1311.73 268.149 1326.14C294.819 1326.14 321.459 1326.14 348.904 1326.14C348.904 1335.16 348.904 1343.26 348.904 1352.31C322.163 1352.31 295.522 1352.31 268.102 1352.31C268.102 1367.36 268.102 1381.5 268.102 1396.64C295.571 1396.64 322.872 1396.64 351.136 1396.64C351.136 1406.79 351.136 1416 351.433 1426.1C313.5 1427 275.27 1427 236.098 1427Z" fill="#787878"/>
<path d="M1920.38 1427C1919.46 1371.36 1919.48 1315.71 1919.94 1258.91C1920.82 1257.44 1921.18 1257.06 1921.49 1256.62C1958.37 1256.52 1995.24 1256.41 2033.06 1256.23C2034 1264.92 2034 1273.68 2033.06 1283.37C2004.81 1284.3 1977.5 1284.3 1950.21 1284.3C1950.21 1299.11 1950.21 1312.35 1950.21 1326.51C1978.55 1326.51 2006.27 1326.51 2034 1326.51C2034 1334.6 2034 1342.68 2033.06 1351.7C2004.9 1352.63 1977.69 1352.63 1950.35 1352.63C1950.35 1368.02 1950.35 1382.12 1950.35 1396.85C1978.74 1396.85 2006.37 1396.85 2034 1396.85C2034 1406.84 2034 1416.83 2034 1427C1996.44 1427 1958.88 1427 1920.38 1427Z" fill="#787878"/>
<path d="M1311.38 1427C1308.62 1425.43 1307.05 1423.18 1304.94 1422.39C1264.44 1407.28 1243.48 1366.4 1251.53 1323.29C1259.95 1278.19 1299.47 1252.32 1342.2 1254.31C1369.76 1255.6 1390.74 1268.83 1405.32 1292.76C1396.49 1297.57 1388.41 1301.97 1379.06 1307.07C1374.97 1302.42 1371.32 1297.2 1366.64 1293.18C1350.44 1279.28 1332.41 1279.08 1313.87 1287.77C1293.79 1297.19 1283.76 1313.52 1282.29 1335.45C1281.07 1353.73 1284.77 1370.2 1298.24 1383.74C1318.74 1404.35 1354.59 1407.11 1374.26 1381.91C1378.41 1376.59 1381.32 1376.39 1386.43 1379.41C1392.35 1382.91 1398.62 1385.83 1405.45 1389.38C1396.02 1406.01 1382.74 1416.57 1365.85 1423.02C1364.42 1423.57 1363.22 1424.73 1362.31 1426.3C1345.91 1427 1329.12 1427 1311.38 1427Z" fill="#787878"/>
<path d="M812.036 1256.62C854.391 1256.62 896.744 1256.62 939.859 1256.62C939.859 1265.83 939.859 1274.32 939.859 1284.05C923.844 1284.05 907.689 1284.05 889.809 1284.05C889.809 1331.92 889.809 1378.55 890.093 1426.09C880.953 1427 871.528 1427 861.166 1427C860.229 1380.02 860.229 1333.03 860.229 1284.82C843.722 1284.82 827.583 1284.82 810.049 1284.82C810.049 1275.77 810.049 1267.91 810.492 1258.9C811.363 1257.44 811.73 1257.06 812.036 1256.62Z" fill="#787878"/>
<path d="M660.183 1427C659.241 1371.27 659.241 1315.54 659.241 1258.99C669.987 1258.99 680.088 1258.99 691.033 1258.99C691.033 1304.48 691.033 1349.81 691.033 1396.38C715.33 1396.38 738.837 1396.38 763.191 1396.38C763.191 1406.8 763.191 1415.99 763.473 1426.1C729.545 1427 695.335 1427 660.183 1427Z" fill="#787878"/>
<path d="M1308.96 521.118C1275.33 540.568 1242.27 559.531 1209.24 578.543C1176.48 597.4 1143.77 616.34 1111 635.182C1079.41 653.35 1047.71 671.335 1016.27 689.755C1013.68 691.267 1011.21 695.504 1011.2 698.481C1011.11 734.94 1011.51 771.399 1011.73 807.859C1011.81 820.719 1011.75 833.58 1011.75 847.734C1024.36 840.735 1036.92 833.992 1049.27 826.868C1090.26 803.208 1131.19 779.433 1172.12 755.66C1209.63 733.877 1247.07 711.992 1284.59 690.248C1303.65 679.203 1322.7 668.124 1342.06 657.619C1346.7 655.101 1349.08 652.972 1348.77 647.379C1348.25 637.769 1348.63 628.11 1348.63 616.602C1247.39 675.018 1147.38 732.723 1045.14 791.719C1045.14 783.901 1045.14 778.138 1045.14 772.375C1045.14 753.956 1045.3 735.534 1045.03 717.119C1044.96 711.885 1046.34 708.939 1051.25 706.186C1088.81 685.124 1126.19 663.718 1163.52 642.252C1201.99 620.135 1240.33 597.802 1278.75 575.617C1322 550.648 1365.28 525.73 1408.57 500.824C1411.37 499.212 1414.34 497.891 1418.34 495.875C1418.59 499.906 1418.95 503.022 1418.95 506.138C1418.98 566.084 1418.9 626.031 1419.08 685.976C1419.1 692.605 1417.41 696.084 1410.99 699.746C1348.49 735.392 1286.43 771.808 1224.13 807.804C1161.23 844.147 1097.95 879.848 1035.42 916.814C1022.4 924.509 1013.01 926.663 999.691 917.261C982.338 905.005 962.791 895.887 944.552 884.819C942.146 883.359 940.809 878.37 940.791 875.005C940.547 830.13 940.627 785.254 940.626 740.378C940.626 688.469 940.626 636.561 940.626 584.652C940.626 581.007 940.626 577.361 940.626 572.17C955.518 580.658 969.37 588.539 983.199 596.46C984.342 597.115 985.257 598.166 986.398 598.826C1009.99 612.467 1009.76 612.062 1034.09 597.822C1076.06 573.256 1118.4 549.31 1160.5 524.977C1205.48 498.987 1250.34 472.81 1295.3 446.792C1334.82 423.924 1374.39 401.153 1413.98 378.415C1415 377.829 1416.52 378.12 1418.96 377.897C1418.96 403.653 1419.15 428.964 1418.66 454.262C1418.61 456.825 1414.86 460.086 1412.06 461.709C1377.97 481.5 1343.74 501.044 1308.96 521.118Z" fill="#0099DC"/>
<path d="M888.181 852.257C839.563 824.141 791.706 794.567 741.957 768.618C721.702 758.052 716.819 746.176 716.979 724.625C718.042 581.266 717.479 437.895 717.682 294.528C717.692 287.552 716.646 283.068 709.527 279.991C701.579 276.555 694.38 271.386 685.475 266.161C685.475 423.21 685.475 578.44 685.475 735.375C673.646 728.768 663.098 722.997 652.671 717.016C642.133 710.972 631.912 704.338 621.154 698.728C616.161 696.125 614.919 693.031 614.923 687.776C615.05 537.71 615.051 387.643 614.928 237.577C614.923 232.274 616.538 229.542 621.36 226.854C642.028 215.335 662.302 203.111 682.773 191.236C686.915 188.834 690.582 186.994 696.026 190.18C748.228 220.735 800.666 250.887 853.028 281.168C854.096 281.785 855.072 282.559 857.309 284.096C842.619 292.771 829.591 302.56 815.008 308.58C793.663 317.391 786.843 330.366 787.162 354.142C788.728 470.69 787.911 587.271 787.771 703.841C787.763 710.393 788.727 714.807 795.678 717.802C804.279 721.508 812.1 727.022 822.041 732.79C822.041 727.397 822.041 723.576 822.041 719.756C822.041 597.157 822.125 474.557 821.846 351.959C821.828 344.137 824.302 340.508 831.175 336.905C849.217 327.448 866.655 316.828 884.235 306.505C888.973 303.723 892.426 303.694 897.585 306.943C913.027 316.665 929.186 325.247 946.82 335.273C929.558 345.453 914.406 355.082 898.558 363.384C892.398 366.611 892.306 370.607 892.308 375.993C892.356 515.675 892.336 655.358 892.319 795.04C892.317 813.463 892.265 831.885 891.418 851.227C889.793 852.183 888.987 852.22 888.181 852.257Z" fill="#0099DC"/>
<path d="M790.395 1115.03C772.341 1090.66 754.787 1066.82 735.675 1040.87C735.675 1079.09 735.675 1114.69 735.675 1150.97C725.611 1150.97 716.393 1150.97 706.315 1150.97C706.315 1098.2 706.315 1045.22 706.315 990.926C715.486 990.926 724.741 990.661 733.957 991.133C735.977 991.237 738.324 993.622 739.739 995.535C764.481 1028.96 789.1 1062.48 815.554 1098.43C815.554 1061.2 815.554 1026.57 815.554 991.415C826.287 991.415 835.503 991.415 845.441 991.415C845.441 1044.58 845.441 1097.56 845.441 1151.63C836.842 1151.63 828.559 1151.82 820.296 1151.49C818.302 1151.41 815.697 1150.13 814.526 1148.55C806.479 1137.68 798.737 1126.58 790.395 1115.03Z" fill="#787878"/>
<path d="M1037.13 1065.22C1054.79 1065.22 1071.45 1065.22 1089.31 1065.22C1089.31 1085.42 1089.87 1104.74 1088.86 1123.98C1088.64 1128.16 1083.39 1132.94 1079.33 1135.9C1048.28 1158.56 1014.72 1162.72 980.403 1145.09C953.685 1131.37 940.225 1107.94 938.527 1077.68C937.102 1052.28 943.181 1029.49 961.556 1011.4C975.37 997.808 992.53 990.857 1012.05 988.642C1035.19 986.017 1055.9 990.727 1073.9 1005.57C1078.95 1009.74 1083.02 1015.12 1089.17 1021.68C1081 1026.45 1073.92 1030.84 1066.53 1034.63C1065.38 1035.22 1062.28 1033.63 1061.06 1032.21C1043.69 1012.1 1015.21 1010.74 996.835 1021.07C975.217 1033.22 965.418 1059.68 969.908 1084.11C976.887 1122.09 1018.4 1138.17 1050.08 1121.34C1056.81 1117.77 1060.32 1113.55 1059.31 1105.72C1058.76 1101.48 1059.21 1097.11 1059.21 1091.73C1043.33 1091.73 1028.1 1091.73 1011.97 1091.73C1011.97 1082.6 1011.97 1074.54 1011.97 1065.22C1020.25 1065.22 1028.19 1065.22 1037.13 1065.22Z" fill="#787878"/>
<path d="M1286.43 1131.1C1285.34 1127.54 1284.36 1124.79 1283.3 1121.83C1259.39 1121.83 1235.67 1121.83 1211.21 1121.83C1208.39 1129.12 1204.91 1136.53 1202.7 1144.3C1200.98 1150.37 1197.79 1152.05 1191.91 1151.76C1183.59 1151.34 1175.22 1151.65 1165.56 1151.65C1173.8 1130.62 1181.67 1110.49 1189.56 1090.37C1201.73 1059.37 1213.77 1028.31 1226.35 997.478C1227.55 994.545 1232.14 991.285 1235.3 991.134C1265.78 989.68 1265.39 990.018 1276.5 1018.93C1292.6 1060.79 1309.36 1102.41 1325.83 1144.13C1326.66 1146.23 1327.38 1148.37 1328.57 1151.63C1318 1151.63 1308.39 1151.93 1298.82 1151.4C1296.61 1151.28 1293.78 1148.71 1292.6 1146.53C1290.1 1141.91 1288.51 1136.81 1286.43 1131.1ZM1224.02 1084.25C1222.75 1087.55 1221.48 1090.84 1220.07 1094.53C1238.45 1094.53 1256.08 1094.53 1274.35 1094.53C1265.2 1070.58 1256.42 1047.59 1247.1 1023.21C1239.06 1044.12 1231.65 1063.4 1224.02 1084.25Z" fill="#787878"/>
<path d="M1018.28 199.51C996.602 187.101 975.551 175.098 952.813 162.132C972.23 150.885 990.468 141.775 1007.03 130.26C1020.05 121.213 1029.37 123.726 1041.79 131.561C1068.87 148.633 1097.22 163.685 1126.46 180.367C1115.01 187.04 1104.6 193.128 1094.17 199.175C1082.82 205.751 1071.57 212.496 1060.01 218.672C1057.67 219.922 1053.55 220.06 1051.27 218.825C1040.29 212.876 1029.67 206.281 1018.28 199.51Z" fill="#0099DC"/>
</svg>
